<?xml-stylesheet type="text/css" href="../css/styles.css"?>
<svg class="logo-svg" xmlns="http://www.w3.org/2000/svg" viewBox="0 0 144.816 141.387">
  <defs/>
  <g fill="#2b0011">
    <path class="logo-svg__path" d="M114.105 120.987c-.264-.397.08-.661.424-.317.185.185.185.344.026.45-.159.079-.37.026-.45-.133zM113.708 110.695c-.317-.212-.264-.265.212-.265.344 0 .53.106.45.265-.185.318-.159.318-.662 0zM139.902 66.483c0-.132.132-.185.265-.106.158.08.264.212.264.291 0 .053-.106.106-.264.106-.133 0-.265-.132-.265-.29zM102.067 31.055c0-.502.29-.687.608-.37.212.212-.08.9-.37.9-.133 0-.238-.238-.238-.53zM98.098 21.663c0-.424.423-.53.635-.159.08.132-.027.291-.238.397-.238.08-.397 0-.397-.238zM106.168 15.974c-.08-.132-.027-.264.106-.264.158 0 .29.132.29.264 0 .159-.052.265-.105.265-.08 0-.212-.106-.291-.265zM38.117 13.143a.318.318 0 01.37 0c.08.106 0 .185-.185.185s-.264-.079-.185-.185zM77.593 9.862c-.265-.397.08-.661.423-.317.185.185.185.344.027.45-.16.079-.37.026-.45-.133zM55.05 9.174a.318.318 0 01.37 0c.08.106 0 .186-.185.186s-.264-.08-.185-.186zM72.592 3.83c-.106-.132-.053-.318.08-.397.132-.106.317-.053.396.08.106.132.053.317-.079.396-.132.106-.318.053-.397-.08zM51.796 2.057c0-.212.132-.317.264-.238.16.106.212.291.133.423-.238.37-.397.291-.397-.185z"/>
    <path class="logo-svg__path" fill="#280b17" d="M56.558 140.99c0-.291-.29-.397-1.11-.397-1.06.026-1.112.053-.636.397.688.529 1.746.503 1.746 0zm2.99.185c.08-.106.08-.74 0-1.402l-.132-1.217L57.22 138c-1.217-.317-2.54-.582-2.937-.556-.688.027-.635.08.556.635.74.344 1.508.635 1.746.635.529.027.767.556.767 1.773 0 .873.027.9 1.032.9.582 0 1.111-.08 1.164-.212zm26.167-.582c1.217-.291 2.937-.53 3.837-.53 1.27 0 1.746-.105 2.117-.502.45-.476 1.587-.9 6.429-2.434 1.085-.318 2.513-.9 3.175-1.27 1.455-.82 3.969-1.879 4.471-1.879.212 0 .635-.238.953-.529.503-.476.688-.503 1.296-.238.582.265.768.238 1.191-.132.291-.265.582-.741.661-1.085.08-.318.397-.661.715-.74.29-.08.608-.398.688-.689.106-.423.344-.555 1.111-.555.847 0 1.111-.186 2.328-1.694 2.699-3.28 4.922-4.736 5.821-3.836.503.503.873 0 .873-1.217s.318-1.614 1.19-1.508c.45.053.556-.08.53-.662 0-.661.106-.74.9-.82.502-.053 1.19.053 1.534.238.794.423 1.085.106.476-.556-.502-.555-.37-1.322.212-1.322.53 0 1.164-.794 1.402-1.72.212-.9.82-1.72 1.297-1.72.397 0 1.56-1.058 1.958-1.8.37-.714.37-1.507-.027-2.142-.29-.503-.264-.635.82-4.26.186-.609.344-.662 1.641-.662 1.35 0 1.402-.026 1.667-.873.159-.582.132-1.164-.08-1.852-.29-.82-.264-1.19.08-2.17.238-.66.476-1.957.582-2.91.08-.979.37-2.01.608-2.381.53-.74 1.535-3.493 1.667-4.498.053-.45.265-.688.688-.74.503-.08.582-.239.582-1.244 0-.847.133-1.27.503-1.508.661-.45.979-1.694.582-2.17-.212-.265-.238-.556 0-1.111.159-.424.37-1.244.476-1.826.133-.82.318-1.058.82-1.19.556-.133.688-.397.927-1.588.264-1.35.317-1.455 1.243-1.667 1.164-.264 1.402-1.085.926-2.963-.264-1.059-.476-1.35-1.296-1.8-1.032-.529-1.244-1.084-.741-2.01.159-.344.106-.9-.265-1.905-.29-.794-.529-1.985-.529-2.673 0-1.243.027-1.27.794-1.27 1.111 0 1.482-.978 1.032-2.645-.344-1.35-.847-1.852-1.773-1.852-.503 0-.582-.106-.45-.503.08-.291-.026-1.429-.238-2.514-.238-1.084-.423-2.54-.423-3.228 0-.926-.159-1.402-.662-2.01-.952-1.112-.846-1.826.37-2.805.583-.476 1.191-.847 1.35-.847.582 0 .106-.661-.714-1.032-.768-.344-1.297-1.27-1.164-2.063.079-.477-.477-.688-.662-.265-.238.662-1.614 1.111-2.09.714-.423-.37-.556-3.042-.185-3.65.132-.186.185-.689.106-1.112-.08-.582-.265-.794-.82-.847-.9-.106-2.488-2.857-2.25-3.968.106-.53 0-.768-.37-.98-1.164-.634-3.863-5.344-4.445-7.805-.159-.688-.238-.74-1.19-.582-.583.08-1.033.08-1.033-.053 0-.132-.211-.45-.476-.74-.476-.503-1.772-2.408-2.328-3.414-.159-.264-.662-.687-1.111-.9-.503-.264-.847-.634-.847-.952 0-.29-.291-1.11-.661-1.852-.344-.714-.662-1.428-.662-1.587-.026-.37-1.746-1.19-2.513-1.19-1.218 0-4.207-1.906-4.63-2.938-.398-.9-1.165-1.296-2.54-1.296-1.006 0-2.382-.873-3.52-2.223-1.323-1.508-1.19-1.481-2.99-.926-2.619.794-3.254.688-4.074-.555-.397-.582-.873-1.059-1.058-1.059-.186 0-.582-.264-.873-.582-.477-.476-.9-.582-3.255-.688-2.249-.08-2.91-.211-3.836-.74-.609-.37-1.217-.847-1.35-1.085-.238-.397-2.249-1.138-3.228-1.19-.211 0-1.19.105-2.17.29-1.534.265-1.904.238-2.698-.132-.82-.397-1.455-1.297-1.852-2.54-.212-.741-1.164-.582-1.587.264-.53 1.059-1.588 1.561-2.329 1.138-.344-.159-1.032-.29-1.534-.264-.503 0-1.64-.08-2.514-.239-1.085-.158-1.72-.158-2.037.027-.318.212-.82.159-1.932-.212-1.402-.503-1.534-.503-2.751-.053-.715.238-1.535.45-1.826.45-.317 0-.635.132-.714.291-.106.132-.794.265-1.535.238-.767-.026-2.117.133-3.043.37-.926.212-2.354.424-3.175.477l-1.508.08-.08-1.06c-.052-.581-.21-1.163-.343-1.322-.132-.132-.238-.503-.238-.847 0-1.11-.926-1.27-2.884-.476-2.117.847-2.46 1.085-3.149 2.196-.423.741-.476 1.058-.264 1.985.132.608.37 1.19.555 1.296.212.132.159.212-.158.212-.291 0-.794.238-1.165.529-.37.29-.82.529-1.031.529-.186 0-.688.291-1.138.661-.424.37-1.244.741-1.8.794-1.19.159-2.725.926-2.725 1.376 0 .476-1.084 1.138-1.852 1.138-.37 0-.952.238-1.323.529-.37.29-.793.53-.979.53-.185 0-.661.422-1.058.925-.45.582-.979.926-1.35.926-1.084 0-3.65 1.508-4.285 2.514-.424.688-.768.926-1.27.926-.503.026-1.218.502-2.382 1.587-.926.873-1.799 1.588-1.958 1.588-.132 0-.158.132-.079.264.106.186.37.133.74-.132.318-.212.768-.397 1.033-.397.264 0 .476-.106.476-.264 0-.239 1.587-1.191 1.693-1.006.027.053.185.265.37.503.265.344.239.608-.105 1.27-.238.476-.582.926-.794 1.005-.397.133-1.482 1.8-1.693 2.593-.106.318-.424.556-.873.609-.688.08-.715.053-.397-.582.159-.397.211-.768.132-.847-.291-.318-.979.132-.979.635 0 .291-.159.661-.37.82-.186.159-.291.582-.212.953.08.476 0 .661-.317.661-.239 0-.424-.212-.424-.529 0-.556-.397-.714-.661-.238-.106.159-.185.688-.185 1.217 0 .767-.08.9-.503.794-.662-.186-.98.344-.397.661.238.132.423.476.423.767 0 .424-.132.503-.529.37-.794-.264-1.587.107-1.587.715a.7.7 0 01-.53.662c-.29.079-.529.317-.529.529 0 .317-.211.37-.926.238-.714-.132-.926-.106-.926.212a.66.66 0 01-.317.529c-.238.08-.16.29.264.661.424.37.582.715.45 1.085-.212.635-.714.688-1.561.132-.556-.37-.582-.502-.397-2.037.106-.926.159-1.693.106-1.746-.291-.291-1.773.9-2.117 1.72-.397.952-1.323 1.958-2.249 2.46-.29.159-.529.53-.529.82 0 .291-.29.794-.635 1.112-.344.317-.952 1.243-1.35 2.037-.396.794-1.031 1.826-1.428 2.249-.688.74-2.408 4.207-2.408 4.815 0 .16.238.344.53.424.45.106.502.026.37-.503-.132-.476-.053-.635.265-.635.238 0 .423-.212.423-.53 0-.29.29-1.163.635-1.984.503-1.11.794-1.455 1.243-1.455.477 0 .503-.053.239-.397-.265-.317-.265-.476 0-.793.714-.874 1.587-.344 1.587.979 0 .344.132.476.476.423.582-.132.477-.767-.37-1.984-.767-1.165-.794-1.403-.08-2.17.397-.423.635-.53.847-.318.423.424.715.344.715-.211 0-.768.635-2.064.952-1.958.159.053.45-.08.635-.318.185-.211.53-.397.767-.397.53.027 1.64 1.72 1.456 2.223-.16.397.767.74 1.349.53.212-.08.476-.477.608-.874.37-1.085 2.223-2.857 3.175-3.07.477-.079.9-.396.98-.66.079-.292.396-.583.687-.662.265-.106.662-.476.873-.873.212-.397.688-1.006 1.059-1.35.476-.45.635-.82.529-1.217-.185-.714.291-1.084.82-.661.291.264.688 0 1.985-1.297.873-.9 1.772-1.614 1.957-1.614.186 0 .9-.476 1.561-1.058.662-.582 1.27-1.058 1.376-1.058.318 0 1.958-1.376 3.466-2.858l1.43-1.428 1.904.105c1.058.053 2.143.212 2.408.318.317.159.45.106.45-.159 0-.37 2.116-2.593 2.46-2.593.106 0 .82-.317 1.588-.688.74-.37 1.905-.714 2.54-.767.952-.08 1.243 0 1.772.582.344.37.635.82.635 1.006 0 .185.318.635.688 1.005.582.582.635.767.37 1.243-.767 1.43.768.688 1.747-.82.582-.926.767-1.058 1.35-.9.555.133.873-.052 1.93-1.19 1.403-1.429 2.118-1.64 2.7-.767.317.476.45.529.926.29.45-.237.635-.21 1.032.239.396.45.423.661.185 1.296s-.212.847.185 1.191c.317.291.688.37 1.085.265.688-.212 1.032.211 1.032 1.27 0 .555-.16.793-.556.9-.344.105-.503.317-.45.714.106.74.847.846 1.508.185.397-.397.794-.503 1.747-.45.661.053 1.243.132 1.296.185.026.053.344.503.661.953.609.873 1.43 1.137 1.773.555.106-.158.053-.37-.106-.423-.185-.053-.317-.397-.317-.74 0-.398-.159-.636-.397-.636-.423 0-.582-1.19-.185-1.402.264-.185 1.217.635 1.455 1.217.08.238.423.45.767.45.318 0 .847.264 1.19.582.821.767 1.165.397 1.377-1.535.211-2.064.9-2.566 3.333-2.513 1.35.026 1.932.158 2.461.582.45.344.9.476 1.323.37.74-.185 2.62.794 2.831 1.482.08.264.423.555.74.661.318.106.874.397 1.218.688.423.318.9.45 1.455.37.715-.105.953.027 1.72.927.82.952.873 1.11.556 1.693-.291.53-.291.714 0 1.058.555.662 1.137.503.952-.264-.212-.82.238-.873 1.667-.159.926.503 1.984 1.667 2.01 2.275 0 .16.239.609.503 1.032.424.582.53 1.27.556 3.122.053 2.461.238 2.858 1.27 2.858.291 0 .556.238.635.529.08.265.423.688.767.926.688.45.874 1.588.318 1.8-.476.158.08 1.084.714 1.19.715.159 1.112-.397.582-.794-.344-.264-.397-.529-.238-1.111.265-.953.741-1.164.98-.45a.762.762 0 00.74.556c.291 0 .82.264 1.164.582.794.74 1.138.397 1.35-1.27.105-1.006.026-1.323-.344-1.614-.477-.318-.45-.344.211-.344.424 0 .794-.212.98-.503.37-.74 1.216-.926 1.904-.45.318.239 1.032.424 1.561.424.635 0 1.112.185 1.429.555.423.424.688.503 1.535.344l1.031-.158-.185.873c-.211.926-.238 1.005-1.137 2.751-.291.582-.688 1.667-.874 2.382-.158.74-.45 1.481-.608 1.693-.423.53-.688 4.207-.37 5.583.582 2.645 1.56 3.228 1.799 1.058.132-1.19.132-1.19 1.137-1.164 1.403.053 2.064.688 1.747 1.773-.37 1.296-.291 2.434.238 2.883.37.344.74.37 2.143.186 1.852-.265 2.064-.186 3.678 1.323.529.502.846 1.031.846 1.508 0 .952 1.059 2.804 1.508 2.62.662-.239.635.555-.026 1.878-1.595 1.303.775 2.818 1.376 1.958.185-.291.608-.53.979-.53.952 0 .873.953-.265 2.673-.635.952-.82 1.481-.661 1.693.158.185.344.847.423 1.482.08.635.185 1.296.238 1.481.053.16-.08.503-.264.794-.503.635-.477 1.138.052 1.72.609.688 1.112.608 2.09-.344 1.482-1.429 2.329-.238 1.191 1.667-.29.45-.476.952-.397 1.058.106.132-.053.476-.317.767-.423.45-.423.609-.132 1.085.476.768.635 5.53.264 7.17-.211.953-.211 1.376 0 1.588 1.135 2.596-.738 5.213-.767 7.435 0 1.243-.714 2.275-1.561 2.275-.344 0-.423.344-.423 1.8 0 1.878-.609 3.333-1.456 3.571-.344.08-.476.556-.635 2.037-.185 2.09-.45 2.646-1.296 2.646-.53 0-1.032.37-1.985 1.429-.238.291-.714.794-1.031 1.111-.715.794-1.323 1.879-1.535 2.831-.08.45-.397.82-.794.98-.9.343-.82.767.133.978 1.031.185 1.217.503.529.873-.291.16-.477.397-.397.53.08.132-.027.793-.265 1.481-.397 1.164-.344 2.223.106 2.223.132 0 .291.582.397 1.27.08.688.37 1.534.609 1.878l.423.635-1.27-.159c-1.006-.158-1.376-.105-1.8.265-.476.45-.528.423-1.56-.794-.582-.688-1.191-1.243-1.376-1.243-.159 0-.662-.45-1.111-.98l-.82-.978-1.456.608c-.794.318-1.958.609-2.593.635-1.058.053-1.217-.026-1.772-.873-.662-.926-1.323-1.481-1.562-1.243-.079.08-.026 1.058.133 2.17.159 1.11.29 3.095.29 4.418 0 1.958-.105 2.566-.555 3.28-.29.503-.661.9-.794.9-.132 0-.45.45-.687.98-.37.74-.715 1.058-1.456 1.27-.529.132-1.058.343-1.164.475-.106.106-.635.186-1.164.186-.74 0-1.19.211-2.01.952-1.165 1.085-1.906 1.429-3.017 1.429-1.35 0-3.546.873-5.16 2.037-1.137.847-1.772 1.138-2.222 1.059-.74-.133-2.963.423-4.048 1.005-.37.212-1.005.397-1.376.397-.476 0-.794.212-1.085.794-.238.45-.582.793-.793.793-.37 0-.53.37-.397.926.026.16.079.556.106.926.026.847 1.058 1.376 2.275 1.138 1.878-.344 4.577 0 7.593.953.027.026 1.032-.212 2.25-.503zm-33.92-.159c0-.053-.237-.106-.528-.106-.291 0-.53.106-.53.238 0 .133.239.186.53.106.29-.079.529-.185.529-.238zm-9.312-3.254c-.477-.635-.82-.794-1.667-.794l-1.059-.026.794.529c.45.29 1.005.529 1.244.529.238 0 .529.132.608.265a.54.54 0 00.423.264c.16 0 0-.344-.343-.767zm9.736-2.011c-.873-.714-2.01-1.005-2.01-.556 0 .582.66 1.217 1.455 1.456 1.19.344 1.481-.16.555-.9zm-11.403-.397c.079-.132.105-.264.026-.264-.08 0-.212.132-.291.264-.08.159-.106.265-.026.265.079 0 .211-.106.29-.265zm2.54-1.482c.29-.793.105-1.137-.344-.687-.186.185-.741.343-1.244.343-.847.053-.873.08-.212.16.424.079.82.29.9.502.212.582.582.45.9-.318zm-2.54-1.957c.079-.133-.027-.265-.238-.265-.239 0-.424.132-.424.265 0 .158.106.264.238.264a.503.503 0 00.424-.264zM3.562 64.34c-.08-.185-.132-.053-.132.318 0 .37.053.502.132.344.053-.186.053-.503 0-.662zm-3.016-.344c.106-.212.053-.45-.08-.53-.158-.105-.264-.105-.264-.026 0 .053-.08.292-.159.53-.079.238-.053.423.106.423.132 0 .318-.185.397-.397zm3.28-.847a.318.318 0 00-.37 0c-.079.106 0 .186.186.186.185 0 .264-.08.185-.186zm1.06-3.942c.184-.555.449-1.27.608-1.56.555-1.165 1.376-3.626 1.217-3.758-.08-.08-.503.159-.953.556-.45.37-.979.688-1.19.688-.503 0-.953.661-.768 1.137.08.238.291.37.503.291.185-.08.397.106.476.45.212.767.027 1.032-.661 1.032-.556 0-.556 0-.053.556.397.423.423.635.159 1.031-.397.662-.397.874 0 .741.159-.053.45-.582.661-1.164zm112.05-1.005c.159-.768-.211-1.482-.714-1.482-.476 0-.503.873-.08 1.588.45.687.662.661.794-.106zM.705 54.815l-.08-1.64.926-.238c1.165-.292 1.35-.635.82-1.456-.37-.582-.37-.714 0-1.455.318-.608.371-1.19.265-2.143l-.185-1.296-.767.661c-.82.688-.9 1.058-1.455 5.9-.186 1.64.026 3.307.423 3.307.053 0 .08-.74.053-1.64zm3.466-2.752c0-.211-.106-.317-.265-.238-.132.08-.264.265-.264.424 0 .132.132.238.264.238.159 0 .265-.185.265-.424zm3.572.16c.08-.133.026-.265-.106-.265-.159 0-.291.132-.291.264 0 .159.053.265.106.265.08 0 .211-.106.29-.265zm-1.112-3.81c.344.026.37-.054.186-.424-.133-.265-.397-.53-.582-.609-.265-.08-.265-.185.026-.555.503-.582.344-.688-.767-.45-1.006.185-1.403.979-.741 1.455.185.159.53.662.714 1.085l.37.794.186-.662c.106-.397.344-.635.608-.635zm2.567-.027c0-.424-.714-.847-.979-.582-.08.105-.08.344 0 .582.212.529.979.529.979 0zm1.587-5.557c0-.238-.264-.529-.582-.635-.529-.211-.555-.264-.132-.423.662-.264.582-.979-.132-.873-.768.106-.847 1.429-.106 1.958.688.476.952.476.952-.027zm2.805-1.931c.503-.476.635-.873.635-1.826 0-1.19-.026-1.217-.503-.767-.476.45-.529.45-.793-.026-.265-.45-.265-.45-.291 0 0 .238-.186.45-.397.45-.609 0-.477.74.211 1.084.318.159.609.344.662.37.106.106-.768 1.535-1.085 1.747-.106.08-.132.37-.026.635.158.397.238.37.582-.291.211-.424.661-1.032 1.005-1.376zm78.264-3.995c.106-.133-.08-.185-.37-.106-.61.159-.689.344-.16.344.212 0 .45-.106.53-.238zm.952-1.164c0-.556-.45-1.059-.767-.874-.503.318-.344 1.112.238 1.138.291.027.53-.106.53-.264zm-75.962-5.186c.397-.397.45-.582.186-.794-.239-.185-.397-.053-.609.503-.344.926-.265.979.423.29zm-1.693-.397c.238-.344.503-1.085.582-1.64l.159-1.032-.847.9c-1.032 1.084-1.429 1.798-1.217 2.142.291.45.9.291 1.323-.37zm4.101-3.995c.344-.212.344-.926 0-.926-.132 0-.74.264-1.323.555-.714.37-.979.635-.767.768.29.185 1.508-.027 2.09-.397zm2.064-2.038c.503-.502.37-.793-.265-.582-.767.212-.82.265-.608.609.211.37.476.37.873-.027zm62.283-.476c.793-.82.873-1.402.185-1.534-.582-.106-1.561.952-1.561 1.666 0 .874.397.82 1.376-.132zm-60.722-.952c-.238-.238-.741.158-.556.476.106.159.265.159.45-.027.159-.158.212-.344.106-.45z"/>
  </g>
  <g class="logo-svg__text-path" fill="#280b17" stroke-width="1.358" letter-spacing="0" word-spacing="0">
    <g stroke-width="16.895" aria-label="Энигма" font-family="Philosopher" font-size="2246.25" font-weight="400" style="line-height:1.25;-inkscape-font-specification:'Philosopher, Normal';font-variant-ligatures:normal;font-variant-caps:normal;font-variant-numeric:normal;font-variant-east-asian:normal">
      <path d="M16.595 86.219q-3.172 0-5.466-1.399-2.26-1.436-3.813-4.839l.675-.567q1.45 2.647 3.273 3.97 1.856 1.323 4.319 1.323 2.632 0 4.42-1.512 1.822-1.55 2.7-4.045.877-2.495.978-5.406H12.512v-1.512h11.17q-.27-5.746-2.464-8.355-2.193-2.608-5.635-2.608-2.834 0-4.555 1.776-1.721 1.74-2.362 5.406H7.99q0-2.268.135-3.553.135-1.323.709-2.117.978-1.323 3.003-2.155 2.058-.87 4.757-.87 2.835 0 5.23 1.815 2.43 1.815 3.813 4.952 1.417 3.138 1.417 6.843 0 3.591-1.282 6.54-1.282 2.91-3.678 4.612-2.362 1.7-5.5 1.7zM31.444 72.232q0-1.928-.472-2.836-.473-.945-1.89-.945h-.506v-.756h2.868q1.248 0 1.856.378.64.34.91 1.286.27.945.27 2.873v3.591h6.75v-8.128h3.036v13.231q0 1.928.472 2.873.473.908 1.89.908h.506v.756h-2.868q-1.248 0-1.89-.34-.607-.378-.877-1.324-.27-.945-.27-2.873v-3.59h-6.748v8.127h-3.037zM50.095 72.232q0-1.928-.473-2.836-.472-.945-1.89-.945h-.506v-.756h2.869q1.248 0 1.855.378.641.34.911 1.286.27.945.27 2.873v9.829l7.086-14.366h3.037v17.768h-3.037V71.098l-7.086 14.365h-3.036zM68.478 72.232q0-1.928-.472-2.836-.473-.945-1.89-.945h-.337v-.756h11.135q2.53 0 2.53 3.025v2.268h-.674q0-1.777-.979-2.76-.978-1.02-2.564-1.02h-3.712v16.255h-3.037zM101.733 86.219q-3.003 0-4.285-1.626-1.283-1.663-1.283-4.8v-8.128l-5.567 13.798h-.675l-5.736-14.176v14.176h-1.35V67.695h3.206l5.061 12.475 5.061-12.475h3.037v12.097q0 2.23.709 3.97.742 1.7 1.822 1.7zM108.496 85.84q-1.08 0-2.193-.49-1.114-.53-1.923-1.702-.777-1.172-.777-3.1 0-2.873 2.362-4.082 2.396-1.21 6.243-1.21h1.012q0-3.705-.911-5.066-.911-1.36-2.632-1.36-1.518 0-2.43.718-.91.718-1.282 2.495h-1.518q0-1.286.135-2.004.135-.756.709-1.399.607-.68 1.99-.983 1.418-.34 3.07-.34 2.734 0 4.32 1.664 1.586 1.625 1.586 6.275v10.207h-1.687l-1.181-1.701h-.169q-.607.87-1.788 1.474-1.181.605-2.936.605zm1.519-1.7q1.113 0 1.855-.605.743-.605 1.35-1.663v-5.104h-1.012q-2.497 0-3.948 1.059-1.451 1.02-1.451 2.721 0 1.74.911 2.684.945.908 2.295.908z" style="-inkscape-font-specification:'Philosopher, Normal';font-variant-ligatures:normal;font-variant-caps:normal;font-variant-numeric:normal;font-variant-east-asian:normal"/>
    </g>
    <g stroke-width="14.235" aria-label="ЗДЕСЬ НАЧИНАЕТСЯ КОСМОС" font-family="Segoe UI" font-size="419.272" font-weight="600" style="line-height:1.25;-inkscape-font-specification:'Segoe UI, Semi-Bold';font-variant-ligatures:normal;font-variant-caps:normal;font-variant-numeric:normal;font-variant-east-asian:normal">
      <path d="M9.69 92.47q.473.132.718.46.248.324.248.827 0 .75-.534 1.141-.533.388-1.65.388-.462 0-.83-.064-.366-.064-.705-.185v-1.003q.339.182.671.277.336.09.816.09.512 0 .766-.178.258-.179.258-.513 0-.345-.264-.52-.26-.179-.866-.179H7.74v-.837h.603q.549 0 .772-.152.223-.155.223-.47 0-.29-.217-.448-.216-.16-.643-.16-.446 0-.832.085-.386.081-.603.196v-.952q.21-.078.672-.145.465-.071.76-.071 1.026 0 1.547.324.524.32.524.969 0 .442-.217.726-.216.28-.64.395zM13.245 94.206h1.306v-3.075h-1.014v.307q0 2.16-.292 2.768zm-1.425 0q.327-.233.418-.574.09-.344.09-2.532v-.952h3.431v4.058h.662v2.066h-.913v-1.084h-3.126v1.084h-.913v-2.066zM17.397 90.148h3.261v.983h-2.052v.938h1.93v.982h-1.93v1.155h2.121v.982h-3.33zM25.507 94.912q-.332.185-.693.28-.361.094-.754.094-1.17 0-1.854-.702-.685-.705-.685-1.91 0-1.21.685-1.911.684-.706 1.854-.706.393 0 .754.095.36.094.693.28v1.043q-.336-.247-.662-.361-.326-.115-.687-.115-.647 0-1.017.446-.37.445-.37 1.228 0 .78.37 1.226.37.445 1.017.445.36 0 .687-.114.326-.115.662-.362zM28.43 94.304q.379 0 .548-.152.182-.165.182-.48 0-.307-.182-.469-.166-.152-.549-.152h-.71v1.253zm1.939-.672q0 .804-.459 1.161-.505.395-1.393.395h-2.005v-5.04h1.208v1.921h.797q.888 0 1.393.395.459.358.459 1.168zM33.642 90.148h1.208v1.921h1.783v-1.92h1.208v5.04h-1.208V93.05H34.85v2.137h-1.208zM41.871 94.27h-1.89l-.297.918h-1.215l1.736-5.04h1.44l1.736 5.04h-1.215zm-1.588-.935h1.284l-.64-2.005zM46.805 95.188v-1.924h-1.638q-.597 0-.92-.395-.32-.395-.32-1.175v-1.546h1.208v.929q0 .796.116 1.002.117.203.412.203h1.142v-2.134h1.208v5.04zM53.396 90.148v5.04H52.25v-3.457l-1.704 3.457h-1.35v-5.04h1.146v3.457l1.704-3.457zM54.582 90.148h1.208v1.921h1.783v-1.92h1.208v5.04h-1.208V93.05H55.79v2.137h-1.208zM62.811 94.27h-1.89l-.297.918h-1.215l1.736-5.04h1.44l1.736 5.04h-1.215zm-1.588-.935h1.284l-.64-2.005zM64.94 90.148h3.26v.983h-2.053v.938h1.93v.982h-1.93v1.155h2.122v.982h-3.33zM68.774 90.148h4.319v.983h-1.554v4.057h-1.208v-4.057h-1.557zM77.43 94.912q-.332.185-.693.28-.361.094-.754.094-1.17 0-1.854-.702-.685-.705-.685-1.91 0-1.21.685-1.911.684-.706 1.854-.706.393 0 .754.095.36.094.693.28v1.043q-.336-.247-.662-.361-.326-.115-.687-.115-.647 0-1.017.446-.37.445-.37 1.228 0 .78.37 1.226.37.445 1.017.445.36 0 .687-.114.326-.115.662-.362zM79.684 91.731q0 .348.163.5.166.152.546.152h.603V91.09h-.603q-.38 0-.546.149-.163.148-.163.492zm-1.428 3.457l1.167-2.14q-.238-.145-.593-.506-.355-.365-.355-.868 0-.756.43-1.141.433-.385 1.36-.385h1.939v5.04h-1.208v-1.907h-.412l-1.042 1.907zM85.615 90.148h1.209v2.08l1.89-2.08h1.367l-1.86 2.043 1.964 2.997h-1.33l-1.41-2.147-.621.682v1.465h-1.209zM93.016 90.999q-.552 0-.857.439-.304.439-.304 1.235 0 .794.304 1.233.305.438.857.438.555 0 .86-.438.304-.44.304-1.233 0-.796-.304-1.235-.305-.44-.86-.44zm0-.942q1.13 0 1.77.695.64.696.64 1.921 0 1.222-.64 1.918-.64.695-1.77.695-1.127 0-1.77-.695-.64-.696-.64-1.918 0-1.225.64-1.92.643-.696 1.77-.696zM100.052 94.912q-.332.185-.693.28-.361.094-.753.094-1.171 0-1.855-.702-.684-.705-.684-1.91 0-1.21.684-1.911.684-.706 1.855-.706.392 0 .753.095.36.094.693.28v1.043q-.335-.247-.662-.361-.326-.115-.687-.115-.647 0-1.017.446-.37.445-.37 1.228 0 .78.37 1.226.37.445 1.017.445.36 0 .687-.114.327-.115.662-.362zM101.057 90.148h1.538l1.067 2.698 1.073-2.698h1.535v5.04h-1.143v-3.686l-1.08 2.718h-.765l-1.08-2.718v3.686h-1.145zM109.6 90.999q-.553 0-.857.439-.305.439-.305 1.235 0 .794.305 1.233.304.438.857.438.555 0 .86-.438.304-.44.304-1.233 0-.796-.304-1.235-.305-.44-.86-.44zm0-.942q1.13 0 1.77.695.64.696.64 1.921 0 1.222-.64 1.918-.64.695-1.77.695-1.127 0-1.77-.695-.64-.696-.64-1.918 0-1.225.64-1.92.643-.696 1.77-.696zM116.636 94.912q-.332.185-.693.28-.361.094-.754.094-1.17 0-1.854-.702-.685-.705-.685-1.91 0-1.21.685-1.911.684-.706 1.854-.706.393 0 .754.095.36.094.693.28v1.043q-.336-.247-.662-.361-.326-.115-.687-.115-.647 0-1.017.446-.37.445-.37 1.228 0 .78.37 1.226.37.445 1.017.445.36 0 .687-.114.326-.115.662-.362z" style="-inkscape-font-specification:'Segoe UI, Semi-Bold';font-variant-ligatures:normal;font-variant-caps:normal;font-variant-numeric:normal;font-variant-east-asian:normal"/>
    </g>
  </g>
</svg>
